<svg xmlns="http://www.w3.org/2000/svg" xmlns:xlink="http://www.w3.org/1999/xlink" version="1.1" id="Your_Icon" x="0px" y="0px" viewBox="5.0 -10.0 100.0 135.0" enable-background="new 0 0 100 100" xml:space="preserve" height="100px" width="100px">
<g>
	<g>
		<g>
			<g>
			</g>
		</g>
		<g>
		</g>
	</g>
</g>
<path fill="#000000" d="M78.284,67.677L60.607,50l17.678-17.678c2.929-2.929,2.93-7.677,0-10.607c-2.929-2.929-7.678-2.929-10.607,0  L50,39.393L32.322,21.715c-2.929-2.929-7.678-2.929-10.607,0c-2.93,2.93-2.929,7.678,0,10.607L39.393,50L21.716,67.677  c-2.93,2.93-2.929,7.678,0,10.607c2.93,2.93,7.677,2.93,10.607,0L50,60.606l17.678,17.678c2.93,2.93,7.677,2.93,10.607,0  C81.213,75.355,81.214,70.607,78.284,67.677z"/>
<text x="0.0" y="117.5" font-size="5.0" font-weight="bold" font-family="Helvetica Neue, Helvetica, Arial-Unicode, Arial, Sans-serif" fill="#000000">Created by Jamison Wieser</text><text x="0.0" y="122.5" font-size="5.0" font-weight="bold" font-family="Helvetica Neue, Helvetica, Arial-Unicode, Arial, Sans-serif" fill="#000000">from the Noun Project</text></svg>