<svg xmlns="http://www.w3.org/2000/svg" xmlns:xlink="http://www.w3.org/1999/xlink" version="1.1" id="moyen" x="0px" y="0px" viewBox="5.0 -10.0 100.0 135.0" enable-background="new 0 0 100 100" xml:space="preserve" height="100px" width="100px">
<path d="M50,5C25.1,5,5,25.1,5,50s20.1,45,45,45s45-20.1,45-45S74.9,5,50,5z M76.6,54.9c-3.4,3.9-7.9,5.9-13.5,5.9  c-4.3,0-9.5-1.8-15.6-5.3c-4.4-2.5-7.5-4-9.4-4c-5,0-7.6,3.5-7.8,9.5H18c0.2-6,2-12,5.4-16c3.4-3.9,7.9-5.9,13.7-5.9  c4.5,0,9.3,1.6,14.4,4.6c5.2,3.1,8.9,4.7,10.9,4.7c2.1,0,3.8-0.8,5.2-2.5c1.3-1.8,2.1-4,2.1-7H82C81.8,46,80,51,76.6,54.9z"/>
<text x="0.0" y="117.5" font-size="5.0" font-weight="bold" font-family="Helvetica Neue, Helvetica, Arial-Unicode, Arial, Sans-serif" fill="#000000">Created by Tim OHREL</text><text x="0.0" y="122.5" font-size="5.0" font-weight="bold" font-family="Helvetica Neue, Helvetica, Arial-Unicode, Arial, Sans-serif" fill="#000000">from the Noun Project</text></svg>